<svg xmlns="http://www.w3.org/2000/svg"><symbol id="mars1" viewBox="0 0 250 280"><path d="M92.5 162.7h-15l-20.1 23.8 3.2 4.6 38.5-20.4-6.6-8zm81.3-21a55.4 55.4 0 0 0 2.7-17.3 49.3 49.3 0 0 0-49.3-49.3c-27.1 0-49.5 22.1-49.5 49.3 0 5.9.4 12.1 2.7 17.3zm-109.1 4.6h124.9v11.87H64.7zm16 39.5h31l-9.4-11.4-21.6 11.4zm78.5-23.1l-6.9 8 38.8 20.4 3.2-4.4-20.1-24h-15zm-60.7 0l19.1 23.1h16.5l19.1-23.1H98.5z"/><path d="M125.9 0L5.5 69.5v139L125.9 278l120.3-69.5v-139zm73 187.9l-5.2 7.5a2.6 2.6 0 0 1-3 .7l-11-5.7H71.8l-11 5.7a2.7 2.7 0 0 1-3-.7l-5.2-7.5a2.4 2.4 0 0 1 .2-2.8l19-22.4h-9.4a2.1 2.1 0 0 1-2.3-2.2V144a2.2 2.2 0 0 1 2.3-2.3h13.2a62.9 62.9 0 0 1-2.5-17.3 54 54 0 0 1 108 0 56.2 56.2 0 0 1-2.5 17.3h13.2a2.2 2.2 0 0 1 2.3 2.3v16.5a2.1 2.1 0 0 1-2.3 2.2h-11.6l18.7 22.4a2.4 2.4 0 0 1 0 2.8z"/><path d="M140 185.8h31.1l-21.7-11.4-9.4 11.4z"/></symbol><symbol id="mars3" viewBox="0 0 250 280"><path d="M122.7 139.8V93.7l-32.9 46.1h32.9zm-61.4 21.7h61.4v25.34H61.3zm66-72.6v50.9h63a67.9 67.9 0 0 0-63-50.9zm-6.9.2c-29.2 1.8-53.6 23-60.7 50.7h24.4zm-72.1 55.2h153.4v12.56H48.3zm79 17.2h10.3v25.34h-10.3z"/><path d="M125 1L4.6 70.5v139L125 279l120.4-69.5v-139zm98.4 160.5h-30.1v27.6a2.3 2.3 0 0 1-2.3 2.3H59a2.3 2.3 0 0 1-2.3-2.3v-27.6H26.6a2.6 2.6 0 0 1-2.3-2.3 2.5 2.5 0 0 1 2.3-2.3h17.1V142a2.1 2.1 0 0 1 2.3-2.2h8.9a72.3 72.3 0 0 1 69.9-55.5c.2-.2.4-.2.9 0 33.8.2 61.8 24 69.4 55.5h8.9a2.1 2.1 0 0 1 2.3 2.2v14.9h17.1a2.5 2.5 0 0 1 2.3 2.3 2.6 2.6 0 0 1-2.3 2.3z"/><path d="M142.1 161.5h46.6v25.34h-46.6z"/></symbol><symbol id="mars3" viewBox="0 0 250 280"><path d="M122.7 139.8V93.7l-32.9 46.1h32.9zm-61.4 21.7h61.4v25.34H61.3zm66-72.6v50.9h63a67.9 67.9 0 0 0-63-50.9zm-6.9.2c-29.2 1.8-53.6 23-60.7 50.7h24.4zm-72.1 55.2h153.4v12.56H48.3zm79 17.2h10.3v25.34h-10.3z"/><path d="M125 1L4.6 70.5v139L125 279l120.4-69.5v-139zm98.4 160.5h-30.1v27.6a2.3 2.3 0 0 1-2.3 2.3H59a2.3 2.3 0 0 1-2.3-2.3v-27.6H26.6a2.6 2.6 0 0 1-2.3-2.3 2.5 2.5 0 0 1 2.3-2.3h17.1V142a2.1 2.1 0 0 1 2.3-2.2h8.9a72.3 72.3 0 0 1 69.9-55.5c.2-.2.4-.2.9 0 33.8.2 61.8 24 69.4 55.5h8.9a2.1 2.1 0 0 1 2.3 2.2v14.9h17.1a2.5 2.5 0 0 1 2.3 2.3 2.6 2.6 0 0 1-2.3 2.3z"/><path d="M142.1 161.5h46.6v25.34h-46.6z"/></symbol><symbol id="mars1" viewBox="0 0 250 280"><path d="M92.5 162.7h-15l-20.1 23.8 3.2 4.6 38.5-20.4-6.6-8zm81.3-21a55.4 55.4 0 0 0 2.7-17.3 49.3 49.3 0 0 0-49.3-49.3c-27.1 0-49.5 22.1-49.5 49.3 0 5.9.4 12.1 2.7 17.3zm-109.1 4.6h124.9v11.87H64.7zm16 39.5h31l-9.4-11.4-21.6 11.4zm78.5-23.1l-6.9 8 38.8 20.4 3.2-4.4-20.1-24h-15zm-60.7 0l19.1 23.1h16.5l19.1-23.1H98.5z"/><path d="M125.9 0L5.5 69.5v139L125.9 278l120.3-69.5v-139zm73 187.9l-5.2 7.5a2.6 2.6 0 0 1-3 .7l-11-5.7H71.8l-11 5.7a2.7 2.7 0 0 1-3-.7l-5.2-7.5a2.4 2.4 0 0 1 .2-2.8l19-22.4h-9.4a2.1 2.1 0 0 1-2.3-2.2V144a2.2 2.2 0 0 1 2.3-2.3h13.2a62.9 62.9 0 0 1-2.5-17.3 54 54 0 0 1 108 0 56.2 56.2 0 0 1-2.5 17.3h13.2a2.2 2.2 0 0 1 2.3 2.3v16.5a2.1 2.1 0 0 1-2.3 2.2h-11.6l18.7 22.4a2.4 2.4 0 0 1 0 2.8z"/><path d="M140 185.8h31.1l-21.7-11.4-9.4 11.4z"/></symbol><symbol id="mars3" viewBox="0 0 250 280"><path d="M122.7 139.8V93.7l-32.9 46.1h32.9zm-61.4 21.7h61.4v25.34H61.3zm66-72.6v50.9h63a67.9 67.9 0 0 0-63-50.9zm-6.9.2c-29.2 1.8-53.6 23-60.7 50.7h24.4zm-72.1 55.2h153.4v12.56H48.3zm79 17.2h10.3v25.34h-10.3z"/><path d="M125 1L4.6 70.5v139L125 279l120.4-69.5v-139zm98.4 160.5h-30.1v27.6a2.3 2.3 0 0 1-2.3 2.3H59a2.3 2.3 0 0 1-2.3-2.3v-27.6H26.6a2.6 2.6 0 0 1-2.3-2.3 2.5 2.5 0 0 1 2.3-2.3h17.1V142a2.1 2.1 0 0 1 2.3-2.2h8.9a72.3 72.3 0 0 1 69.9-55.5c.2-.2.4-.2.9 0 33.8.2 61.8 24 69.4 55.5h8.9a2.1 2.1 0 0 1 2.3 2.2v14.9h17.1a2.5 2.5 0 0 1 2.3 2.3 2.6 2.6 0 0 1-2.3 2.3z"/><path d="M142.1 161.5h46.6v25.34h-46.6z"/></symbol><symbol id="mars2" viewBox="0 0 250 280"><path d="M90.3 172.4h22.8v14.38H90.3zM125 77.2c-26.7 0-49.1 16.2-50.2 45.7h100.4c-1.1-29.5-23.5-45.7-50.2-45.7zm-53.9 95.2h14.6v14.38H71.1zm65.8 0h22.8v14.38h-22.8zm-19.2 0h14.6v14.38h-14.6zm46.6 0h14.6v14.38h-14.6z"/><path d="M125 1L4.6 70.5v139L125 279l120.4-69.5v-139zm72.1 169.1a2.1 2.1 0 0 1-2.2 2.3h-11.5v14.4h11.5a2.4 2.4 0 0 1 2.2 2.3 2.5 2.5 0 0 1-2.2 2.3H55.1a2.5 2.5 0 0 1-2.2-2.3 2.4 2.4 0 0 1 2.2-2.3h11.5v-14.4H55.1a2.1 2.1 0 0 1-2.2-2.3v-44.9a2.1 2.1 0 0 1 2.2-2.3h15.1c1.1-32.4 25.3-50.2 54.8-50.2s53.6 17.8 54.8 50.2h15.1a2.1 2.1 0 0 1 2.2 2.3z"/><path d="M57.4 167.8h135.2v-40.4H57.4zm66.5-15.5h55.7a2.3 2.3 0 0 1 0 4.6h-55.7a2.3 2.3 0 1 1 0-4.6z"/></symbol><symbol id="mars3" viewBox="0 0 250 280"><path d="M122.7 139.8V93.7l-32.9 46.1h32.9zm-61.4 21.7h61.4v25.34H61.3zm66-72.6v50.9h63a67.9 67.9 0 0 0-63-50.9zm-6.9.2c-29.2 1.8-53.6 23-60.7 50.7h24.4zm-72.1 55.2h153.4v12.56H48.3zm79 17.2h10.3v25.34h-10.3z"/><path d="M125 1L4.6 70.5v139L125 279l120.4-69.5v-139zm98.4 160.5h-30.1v27.6a2.3 2.3 0 0 1-2.3 2.3H59a2.3 2.3 0 0 1-2.3-2.3v-27.6H26.6a2.6 2.6 0 0 1-2.3-2.3 2.5 2.5 0 0 1 2.3-2.3h17.1V142a2.1 2.1 0 0 1 2.3-2.2h8.9a72.3 72.3 0 0 1 69.9-55.5c.2-.2.4-.2.9 0 33.8.2 61.8 24 69.4 55.5h8.9a2.1 2.1 0 0 1 2.3 2.2v14.9h17.1a2.5 2.5 0 0 1 2.3 2.3 2.6 2.6 0 0 1-2.3 2.3z"/><path d="M142.1 161.5h46.6v25.34h-46.6z"/></symbol><symbol id="mars3" viewBox="0 0 250 280"><path d="M122.7 139.8V93.7l-32.9 46.1h32.9zm-61.4 21.7h61.4v25.34H61.3zm66-72.6v50.9h63a67.9 67.9 0 0 0-63-50.9zm-6.9.2c-29.2 1.8-53.6 23-60.7 50.7h24.4zm-72.1 55.2h153.4v12.56H48.3zm79 17.2h10.3v25.34h-10.3z"/><path d="M125 1L4.6 70.5v139L125 279l120.4-69.5v-139zm98.4 160.5h-30.1v27.6a2.3 2.3 0 0 1-2.3 2.3H59a2.3 2.3 0 0 1-2.3-2.3v-27.6H26.6a2.6 2.6 0 0 1-2.3-2.3 2.5 2.5 0 0 1 2.3-2.3h17.1V142a2.1 2.1 0 0 1 2.3-2.2h8.9a72.3 72.3 0 0 1 69.9-55.5c.2-.2.4-.2.9 0 33.8.2 61.8 24 69.4 55.5h8.9a2.1 2.1 0 0 1 2.3 2.2v14.9h17.1a2.5 2.5 0 0 1 2.3 2.3 2.6 2.6 0 0 1-2.3 2.3z"/><path d="M142.1 161.5h46.6v25.34h-46.6z"/></symbol><symbol id="mars1" viewBox="0 0 250 280"><path d="M92.5 162.7h-15l-20.1 23.8 3.2 4.6 38.5-20.4-6.6-8zm81.3-21a55.4 55.4 0 0 0 2.7-17.3 49.3 49.3 0 0 0-49.3-49.3c-27.1 0-49.5 22.1-49.5 49.3 0 5.9.4 12.1 2.7 17.3zm-109.1 4.6h124.9v11.87H64.7zm16 39.5h31l-9.4-11.4-21.6 11.4zm78.5-23.1l-6.9 8 38.8 20.4 3.2-4.4-20.1-24h-15zm-60.7 0l19.1 23.1h16.5l19.1-23.1H98.5z"/><path d="M125.9 0L5.5 69.5v139L125.9 278l120.3-69.5v-139zm73 187.9l-5.2 7.5a2.6 2.6 0 0 1-3 .7l-11-5.7H71.8l-11 5.7a2.7 2.7 0 0 1-3-.7l-5.2-7.5a2.4 2.4 0 0 1 .2-2.8l19-22.4h-9.4a2.1 2.1 0 0 1-2.3-2.2V144a2.2 2.2 0 0 1 2.3-2.3h13.2a62.9 62.9 0 0 1-2.5-17.3 54 54 0 0 1 108 0 56.2 56.2 0 0 1-2.5 17.3h13.2a2.2 2.2 0 0 1 2.3 2.3v16.5a2.1 2.1 0 0 1-2.3 2.2h-11.6l18.7 22.4a2.4 2.4 0 0 1 0 2.8z"/><path d="M140 185.8h31.1l-21.7-11.4-9.4 11.4z"/></symbol><symbol id="mars1" viewBox="0 0 250 280"><path d="M92.5 162.7h-15l-20.1 23.8 3.2 4.6 38.5-20.4-6.6-8zm81.3-21a55.4 55.4 0 0 0 2.7-17.3 49.3 49.3 0 0 0-49.3-49.3c-27.1 0-49.5 22.1-49.5 49.3 0 5.9.4 12.1 2.7 17.3zm-109.1 4.6h124.9v11.87H64.7zm16 39.5h31l-9.4-11.4-21.6 11.4zm78.5-23.1l-6.9 8 38.8 20.4 3.2-4.4-20.1-24h-15zm-60.7 0l19.1 23.1h16.5l19.1-23.1H98.5z"/><path d="M125.9 0L5.5 69.5v139L125.9 278l120.3-69.5v-139zm73 187.9l-5.2 7.5a2.6 2.6 0 0 1-3 .7l-11-5.7H71.8l-11 5.7a2.7 2.7 0 0 1-3-.7l-5.2-7.5a2.4 2.4 0 0 1 .2-2.8l19-22.4h-9.4a2.1 2.1 0 0 1-2.3-2.2V144a2.2 2.2 0 0 1 2.3-2.3h13.2a62.9 62.9 0 0 1-2.5-17.3 54 54 0 0 1 108 0 56.2 56.2 0 0 1-2.5 17.3h13.2a2.2 2.2 0 0 1 2.3 2.3v16.5a2.1 2.1 0 0 1-2.3 2.2h-11.6l18.7 22.4a2.4 2.4 0 0 1 0 2.8z"/><path d="M140 185.8h31.1l-21.7-11.4-9.4 11.4z"/></symbol><symbol id="mars3" viewBox="0 0 250 280"><path d="M122.7 139.8V93.7l-32.9 46.1h32.9zm-61.4 21.7h61.4v25.34H61.3zm66-72.6v50.9h63a67.9 67.9 0 0 0-63-50.9zm-6.9.2c-29.2 1.8-53.6 23-60.7 50.7h24.4zm-72.1 55.2h153.4v12.56H48.3zm79 17.2h10.3v25.34h-10.3z"/><path d="M125 1L4.6 70.5v139L125 279l120.4-69.5v-139zm98.4 160.5h-30.1v27.6a2.3 2.3 0 0 1-2.3 2.3H59a2.3 2.3 0 0 1-2.3-2.3v-27.6H26.6a2.6 2.6 0 0 1-2.3-2.3 2.5 2.5 0 0 1 2.3-2.3h17.1V142a2.1 2.1 0 0 1 2.3-2.2h8.9a72.3 72.3 0 0 1 69.9-55.5c.2-.2.4-.2.9 0 33.8.2 61.8 24 69.4 55.5h8.9a2.1 2.1 0 0 1 2.3 2.2v14.9h17.1a2.5 2.5 0 0 1 2.3 2.3 2.6 2.6 0 0 1-2.3 2.3z"/><path d="M142.1 161.5h46.6v25.34h-46.6z"/></symbol><symbol id="mars2" viewBox="0 0 250 280"><path d="M90.3 172.4h22.8v14.38H90.3zM125 77.2c-26.7 0-49.1 16.2-50.2 45.7h100.4c-1.1-29.5-23.5-45.7-50.2-45.7zm-53.9 95.2h14.6v14.38H71.1zm65.8 0h22.8v14.38h-22.8zm-19.2 0h14.6v14.38h-14.6zm46.6 0h14.6v14.38h-14.6z"/><path d="M125 1L4.6 70.5v139L125 279l120.4-69.5v-139zm72.1 169.1a2.1 2.1 0 0 1-2.2 2.3h-11.5v14.4h11.5a2.4 2.4 0 0 1 2.2 2.3 2.5 2.5 0 0 1-2.2 2.3H55.1a2.5 2.5 0 0 1-2.2-2.3 2.4 2.4 0 0 1 2.2-2.3h11.5v-14.4H55.1a2.1 2.1 0 0 1-2.2-2.3v-44.9a2.1 2.1 0 0 1 2.2-2.3h15.1c1.1-32.4 25.3-50.2 54.8-50.2s53.6 17.8 54.8 50.2h15.1a2.1 2.1 0 0 1 2.2 2.3z"/><path d="M57.4 167.8h135.2v-40.4H57.4zm66.5-15.5h55.7a2.3 2.3 0 0 1 0 4.6h-55.7a2.3 2.3 0 1 1 0-4.6z"/></symbol></svg>